  0
SECTION
  2
HEADER
  9
$ACADVER
  1
AC1014
  9
$HANDSEED
  5
FFFF
  9
$MEASUREMENT
 70
     1
  0
ENDSEC
  0
SECTION
  2
TABLES
  0
TABLE
  2
VPORT
  5
8
330
0
100
AcDbSymbolTable
 70
     4
  0
VPORT
  5
2E
330
8
100
AcDbSymbolTableRecord
100
AcDbViewportTableRecord
  2
*ACTIVE
 70
     0
 10
0.0
 20
0.0
 11
1.0
 21
1.0
 12
210.0
 22
148.5
 13
0.0
 23
0.0
 14
10.0
 24
10.0
 15
10.0
 25
10.0
 16
0.0
 26
0.0
 36
1.0
 17
0.0
 27
0.0
 37
0.0
 40
341.0
 41
1.24
 42
50.0
 43
0.0
 44
0.0
 50
0.0
 51
0.0
 71
     0
 72
   100
 73
     1
 74
     3
 75
     0
 76
     0
 77
     0
 78
     0
  0
ENDTAB
  0
TABLE
  2
LTYPE
  5
5
330
0
100
AcDbSymbolTable
 70
     1
  0
LTYPE
  5
14
330
5
100
AcDbSymbolTableRecord
100
AcDbLinetypeTableRecord
  2
BYBLOCK
 70
     0
  3

 72
    65
 73
     0
 40
0.0
  0
LTYPE
  5
15
330
5
100
AcDbSymbolTableRecord
100
AcDbLinetypeTableRecord
  2
BYLAYER
 70
     0
  3

 72
    65
 73
     0
 40
0.0
  0
LTYPE
  5
16
330
5
100
AcDbSymbolTableRecord
100
AcDbLinetypeTableRecord
  2
CONTINUOUS
 70
     0
  3
Solid line
 72
    65
 73
     0
 40
0.0
  0
ENDTAB
  0
TABLE
  2
LAYER
  5
2
100
AcDbSymbolTable
 70
1
  0
LAYER
  5
50
100
AcDbSymbolTableRecord
100
AcDbLayerTableRecord
  2
0
 70
0
  6
CONTINUOUS
  0
ENDTAB
  0
TABLE
  2
STYLE
  5
3
330
0
100
AcDbSymbolTable
 70
     1
  0
STYLE
  5
11
330
3
100
AcDbSymbolTableRecord
100
AcDbTextStyleTableRecord
  2
STANDARD
 70
     0
 40
0.0
 41
1.0
 50
0.0
 71
     0
 42
2.5
  3
txt
  4

  0
ENDTAB
  0
TABLE
  2
VIEW
  5
6
330
0
100
AcDbSymbolTable
 70
     0
  0
ENDTAB
  0
TABLE
  2
UCS
  5
7
330
0
100
AcDbSymbolTable
 70
     0
  0
ENDTAB
  0
TABLE
  2
APPID
  5
9
330
0
100
AcDbSymbolTable
 70
     2
  0
APPID
  5
12
330
9
100
AcDbSymbolTableRecord
100
AcDbRegAppTableRecord
  2
ACAD
 70
     0
  0
ENDTAB
  0
TABLE
  2
DIMSTYLE
  5
A
330
0
100
AcDbSymbolTable
 70
     1
  0
DIMSTYLE
105
27
330
A
100
AcDbSymbolTableRecord
100
AcDbDimStyleTableRecord
  2
ISO-25
 70
     0
  3

  4

  5

  6

  7

 40
1.0
 41
2.5
 42
0.625
 43
3.75
 44
1.25
 45
0.0
 46
0.0
 47
0.0
 48
0.0
140
2.5
141
2.5
142
0.0
143
0.03937007874016
144
1.0
145
0.0
146
1.0
147
0.625
 71
     0
 72
     0
 73
     0
 74
     0
 75
     0
 76
     0
 77
     1
 78
     8
170
     0
171
     3
172
     1
173
     0
174
     0
175
     0
176
     0
177
     0
178
     0
270
     2
271
     2
272
     2
273
     2
274
     3
340
11
275
     0
280
     0
281
     0
282
     0
283
     0
284
     8
285
     0
286
     0
287
     3
288
     0
  0
ENDTAB
  0
TABLE
  2
BLOCK_RECORD
  5
1
330
0
100
AcDbSymbolTable
 70
     1
  0
BLOCK_RECORD
  5
1F
330
1
100
AcDbSymbolTableRecord
100
AcDbBlockTableRecord
  2
*MODEL_SPACE
  0
BLOCK_RECORD
  5
1B
330
1
100
AcDbSymbolTableRecord
100
AcDbBlockTableRecord
  2
*PAPER_SPACE
  0
ENDTAB
  0
ENDSEC
  0
SECTION
  2
BLOCKS
  0
BLOCK
  5
20
330
1F
100
AcDbEntity
  8
0
100
AcDbBlockBegin
  2
*MODEL_SPACE
 70
     0
 10
0.0
 20
0.0
 30
0.0
  3
*MODEL_SPACE
  1

  0
ENDBLK
  5
21
330
1F
100
AcDbEntity
  8
0
100
AcDbBlockEnd
  0
BLOCK
  5
1C
330
1B
100
AcDbEntity
 67
     1
  8
0
100
AcDbBlockBegin
  2
*PAPER_SPACE
  1

  0
ENDBLK
  5
1D
330
1B
100
AcDbEntity
 67
     1
  8
0
100
AcDbBlockEnd
  0
ENDSEC
  0
SECTION
  2
ENTITIES
  0
LINE
  5
100
100
AcDbEntity
  8
0
 62
7
100
AcDbLine
 10
5.698195
 20
3.272588
 30
0.0
 11
5.651871
 21
3.312274
 31
0.0
  0
LINE
  5
101
100
AcDbEntity
  8
0
 62
7
100
AcDbLine
 10
5.651871
 20
3.312274
 30
0.0
 11
5.411966
 21
3.869672
 31
0.0
  0
LINE
  5
102
100
AcDbEntity
  8
0
 62
7
100
AcDbLine
 10
5.411966
 20
3.869672
 30
0.0
 11
5.415776
 21
3.929936
 31
0.0
  0
LINE
  5
103
100
AcDbEntity
  8
0
 62
7
100
AcDbLine
 10
5.415776
 20
3.929936
 30
0.0
 11
5.871779
 21
4.591834
 31
0.0
  0
LINE
  5
104
100
AcDbEntity
  8
0
 62
7
100
AcDbLine
 10
5.871779
 20
4.591834
 30
0.0
 11
5.866781
 21
4.645697
 31
0.0
  0
LINE
  5
105
100
AcDbEntity
  8
0
 62
7
100
AcDbLine
 10
5.866781
 20
4.645697
 30
0.0
 11
5.297228
 21
5.212910
 31
0.0
  0
LINE
  5
106
100
AcDbEntity
  8
0
 62
7
100
AcDbLine
 10
5.297228
 20
5.212910
 30
0.0
 11
5.243190
 21
5.217888
 31
0.0
  0
LINE
  5
107
100
AcDbEntity
  8
0
 62
7
100
AcDbLine
 10
5.243190
 20
5.217888
 30
0.0
 11
4.566897
 21
4.755697
 31
0.0
  0
LINE
  5
108
100
AcDbEntity
  8
0
 62
7
100
AcDbLine
 10
4.566897
 20
4.755697
 30
0.0
 11
4.506099
 21
4.751335
 31
0.0
  0
LINE
  5
109
100
AcDbEntity
  8
0
 62
7
100
AcDbLine
 10
4.506099
 20
4.751335
 30
0.0
 11
3.963541
 21
4.972521
 31
0.0
  0
LINE
  5
10a
100
AcDbEntity
  8
0
 62
7
100
AcDbLine
 10
3.963541
 20
4.972521
 30
0.0
 11
3.923549
 21
5.018133
 31
0.0
  0
LINE
  5
10b
100
AcDbEntity
  8
0
 62
7
100
AcDbLine
 10
3.923549
 20
5.018133
 30
0.0
 11
3.772865
 21
5.824313
 31
0.0
  0
LINE
  5
10c
100
AcDbEntity
  8
0
 62
7
100
AcDbLine
 10
3.772865
 20
5.824313
 30
0.0
 11
3.731111
 21
5.858877
 31
0.0
  0
LINE
  5
10d
100
AcDbEntity
  8
0
 62
7
100
AcDbLine
 10
3.731111
 20
5.858877
 30
0.0
 11
2.925558
 21
5.858877
 31
0.0
  0
LINE
  5
10e
100
AcDbEntity
  8
0
 62
7
100
AcDbLine
 10
2.925558
 20
5.858877
 30
0.0
 11
2.883851
 21
5.824313
 31
0.0
  0
LINE
  5
10f
100
AcDbEntity
  8
0
 62
7
100
AcDbLine
 10
2.883851
 20
5.824313
 30
0.0
 11
2.733215
 21
5.018133
 31
0.0
  0
LINE
  5
110
100
AcDbEntity
  8
0
 62
7
100
AcDbLine
 10
2.733215
 20
5.018133
 30
0.0
 11
2.693223
 21
4.972521
 31
0.0
  0
LINE
  5
111
100
AcDbEntity
  8
0
 62
7
100
AcDbLine
 10
2.693223
 20
4.972521
 30
0.0
 11
2.150617
 21
4.751335
 31
0.0
  0
LINE
  5
112
100
AcDbEntity
  8
0
 62
7
100
AcDbLine
 10
2.150617
 20
4.751335
 30
0.0
 11
2.089819
 21
4.755697
 31
0.0
  0
LINE
  5
113
100
AcDbEntity
  8
0
 62
7
100
AcDbLine
 10
2.089819
 20
4.755697
 30
0.0
 11
1.413574
 21
5.217888
 31
0.0
  0
LINE
  5
114
100
AcDbEntity
  8
0
 62
7
100
AcDbLine
 10
1.413574
 20
5.217888
 30
0.0
 11
1.359489
 21
5.212910
 31
0.0
  0
LINE
  5
115
100
AcDbEntity
  8
0
 62
7
100
AcDbLine
 10
1.359489
 20
5.212910
 30
0.0
 11
0.789888
 21
4.645696
 31
0.0
  0
LINE
  5
116
100
AcDbEntity
  8
0
 62
7
100
AcDbLine
 10
0.789888
 20
4.645696
 30
0.0
 11
0.784890
 21
4.591834
 31
0.0
  0
LINE
  5
117
100
AcDbEntity
  8
0
 62
7
100
AcDbLine
 10
0.784890
 20
4.591834
 30
0.0
 11
1.240942
 21
3.929936
 31
0.0
  0
LINE
  5
118
100
AcDbEntity
  8
0
 62
7
100
AcDbLine
 10
1.240942
 20
3.929936
 30
0.0
 11
1.244701
 21
3.869672
 31
0.0
  0
LINE
  5
119
100
AcDbEntity
  8
0
 62
7
100
AcDbLine
 10
1.244701
 20
3.869672
 30
0.0
 11
1.004749
 21
3.312274
 31
0.0
  0
LINE
  5
11a
100
AcDbEntity
  8
0
 62
7
100
AcDbLine
 10
1.004749
 20
3.312274
 30
0.0
 11
0.958424
 21
3.272588
 31
0.0
  0
LINE
  5
11b
100
AcDbEntity
  8
0
 62
7
100
AcDbLine
 10
0.958424
 20
3.272588
 30
0.0
 11
0.175819
 21
3.127644
 31
0.0
  0
LINE
  5
11c
100
AcDbEntity
  8
0
 62
7
100
AcDbLine
 10
0.175819
 20
3.127644
 30
0.0
 11
0.141111
 21
3.086014
 31
0.0
  0
LINE
  5
11d
100
AcDbEntity
  8
0
 62
7
100
AcDbLine
 10
0.141111
 20
3.086014
 30
0.0
 11
0.141159
 21
2.283818
 31
0.0
  0
LINE
  5
11e
100
AcDbEntity
  8
0
 62
7
100
AcDbLine
 10
0.141159
 20
2.283818
 30
0.0
 11
0.175866
 21
2.242188
 31
0.0
  0
LINE
  5
11f
100
AcDbEntity
  8
0
 62
7
100
AcDbLine
 10
0.175866
 20
2.242188
 30
0.0
 11
0.939285
 21
2.100705
 31
0.0
  0
LINE
  5
120
100
AcDbEntity
  8
0
 62
7
100
AcDbLine
 10
0.939285
 20
2.100705
 30
0.0
 11
0.984610
 21
2.060735
 31
0.0
  0
LINE
  5
121
100
AcDbEntity
  8
0
 62
7
100
AcDbLine
 10
0.984610
 20
2.060735
 30
0.0
 11
1.222943
 21
1.467823
 31
0.0
  0
LINE
  5
122
100
AcDbEntity
  8
0
 62
7
100
AcDbLine
 10
1.222943
 20
1.467823
 30
0.0
 11
1.218419
 21
1.407276
 31
0.0
  0
LINE
  5
123
100
AcDbEntity
  8
0
 62
7
100
AcDbLine
 10
1.218419
 20
1.407276
 30
0.0
 11
0.784791
 21
0.777950
 31
0.0
  0
LINE
  5
124
100
AcDbEntity
  8
0
 62
7
100
AcDbLine
 10
0.784791
 20
0.777950
 30
0.0
 11
0.789790
 21
0.724041
 31
0.0
  0
LINE
  5
125
100
AcDbEntity
  8
0
 62
7
100
AcDbLine
 10
0.789790
 20
0.724041
 30
0.0
 11
1.359438
 21
0.156828
 31
0.0
  0
LINE
  5
126
100
AcDbEntity
  8
0
 62
7
100
AcDbLine
 10
1.359438
 20
0.156828
 30
0.0
 11
1.413522
 21
0.151849
 31
0.0
  0
LINE
  5
127
100
AcDbEntity
  8
0
 62
7
100
AcDbLine
 10
1.413522
 20
0.151849
 30
0.0
 11
2.034255
 21
0.576157
 31
0.0
  0
LINE
  5
128
100
AcDbEntity
  8
0
 62
7
100
AcDbLine
 10
2.034255
 20
0.576157
 30
0.0
 11
2.093767
 21
0.578217
 31
0.0
  0
LINE
  5
129
100
AcDbEntity
  8
0
 62
7
100
AcDbLine
 10
2.093767
 20
0.578217
 30
0.0
 11
2.367522
 21
0.432657
 31
0.0
  0
LINE
  5
12a
100
AcDbEntity
  8
0
 62
7
100
AcDbLine
 10
2.367522
 20
0.432657
 30
0.0
 11
2.412513
 21
0.449155
 31
0.0
  0
LINE
  5
12b
100
AcDbEntity
  8
0
 62
7
100
AcDbLine
 10
2.412513
 20
0.449155
 30
0.0
 11
2.976972
 21
1.807423
 31
0.0
  0
LINE
  5
12c
100
AcDbEntity
  8
0
 62
7
100
AcDbLine
 10
2.976972
 20
1.807423
 30
0.0
 11
2.979865
 21
1.821478
 31
0.0
  0
LINE
  5
12d
100
AcDbEntity
  8
0
 62
7
100
AcDbLine
 10
2.979865
 20
1.821478
 30
0.0
 11
2.977692
 21
1.835727
 31
0.0
  0
LINE
  5
12e
100
AcDbEntity
  8
0
 62
7
100
AcDbLine
 10
2.977692
 20
1.835727
 30
0.0
 11
2.971020
 21
1.848520
 31
0.0
  0
LINE
  5
12f
100
AcDbEntity
  8
0
 62
7
100
AcDbLine
 10
2.971020
 20
1.848520
 30
0.0
 11
2.960392
 21
1.858201
 31
0.0
  0
LINE
  5
130
100
AcDbEntity
  8
0
 62
7
100
AcDbLine
 10
2.960392
 20
1.858201
 30
0.0
 11
2.943264
 21
1.868646
 31
0.0
  0
LINE
  5
131
100
AcDbEntity
  8
0
 62
7
100
AcDbLine
 10
2.943264
 20
1.868646
 30
0.0
 11
2.926136
 21
1.879091
 31
0.0
  0
LINE
  5
132
100
AcDbEntity
  8
0
 62
7
100
AcDbLine
 10
2.926136
 20
1.879091
 30
0.0
 11
2.909008
 21
1.889536
 31
0.0
  0
LINE
  5
133
100
AcDbEntity
  8
0
 62
7
100
AcDbLine
 10
2.909008
 20
1.889536
 30
0.0
 11
2.891879
 21
1.899981
 31
0.0
  0
LINE
  5
134
100
AcDbEntity
  8
0
 62
7
100
AcDbLine
 10
2.891879
 20
1.899981
 30
0.0
 11
2.881663
 21
1.906678
 31
0.0
  0
LINE
  5
135
100
AcDbEntity
  8
0
 62
7
100
AcDbLine
 10
2.881663
 20
1.906678
 30
0.0
 11
2.870521
 21
1.914831
 31
0.0
  0
LINE
  5
136
100
AcDbEntity
  8
0
 62
7
100
AcDbLine
 10
2.870521
 20
1.914831
 30
0.0
 11
2.859226
 21
1.923823
 31
0.0
  0
LINE
  5
137
100
AcDbEntity
  8
0
 62
7
100
AcDbLine
 10
2.859226
 20
1.923823
 30
0.0
 11
2.848553
 21
1.933029
 31
0.0
  0
LINE
  5
138
100
AcDbEntity
  8
0
 62
7
100
AcDbLine
 10
2.848553
 20
1.933029
 30
0.0
 11
2.680071
 21
2.072128
 31
0.0
  0
LINE
  5
139
100
AcDbEntity
  8
0
 62
7
100
AcDbLine
 10
2.680071
 20
2.072128
 30
0.0
 11
2.550337
 21
2.248034
 31
0.0
  0
LINE
  5
13a
100
AcDbEntity
  8
0
 62
7
100
AcDbLine
 10
2.550337
 20
2.248034
 30
0.0
 11
2.466943
 21
2.453259
 31
0.0
  0
LINE
  5
13b
100
AcDbEntity
  8
0
 62
7
100
AcDbLine
 10
2.466943
 20
2.453259
 30
0.0
 11
2.437461
 21
2.680318
 31
0.0
  0
LINE
  5
13c
100
AcDbEntity
  8
0
 62
7
100
AcDbLine
 10
2.437461
 20
2.680318
 30
0.0
 11
2.507472
 21
3.025646
 31
0.0
  0
LINE
  5
13d
100
AcDbEntity
  8
0
 62
7
100
AcDbLine
 10
2.507472
 20
3.025646
 30
0.0
 11
2.698391
 21
3.307641
 31
0.0
  0
LINE
  5
13e
100
AcDbEntity
  8
0
 62
7
100
AcDbLine
 10
2.698391
 20
3.307641
 30
0.0
 11
2.981551
 21
3.497765
 31
0.0
  0
LINE
  5
13f
100
AcDbEntity
  8
0
 62
7
100
AcDbLine
 10
2.981551
 20
3.497765
 30
0.0
 11
3.328283
 21
3.567481
 31
0.0
  0
LINE
  5
140
100
AcDbEntity
  8
0
 62
7
100
AcDbLine
 10
3.328283
 20
3.567481
 30
0.0
 11
3.675008
 21
3.497765
 31
0.0
  0
LINE
  5
141
100
AcDbEntity
  8
0
 62
7
100
AcDbLine
 10
3.675008
 20
3.497765
 30
0.0
 11
3.958152
 21
3.307641
 31
0.0
  0
LINE
  5
142
100
AcDbEntity
  8
0
 62
7
100
AcDbLine
 10
3.958152
 20
3.307641
 30
0.0
 11
4.149055
 21
3.025646
 31
0.0
  0
LINE
  5
143
100
AcDbEntity
  8
0
 62
7
100
AcDbLine
 10
4.149055
 20
3.025646
 30
0.0
 11
4.219058
 21
2.680318
 31
0.0
  0
LINE
  5
144
100
AcDbEntity
  8
0
 62
7
100
AcDbLine
 10
4.219058
 20
2.680318
 30
0.0
 11
4.189583
 21
2.453259
 31
0.0
  0
LINE
  5
145
100
AcDbEntity
  8
0
 62
7
100
AcDbLine
 10
4.189583
 20
2.453259
 30
0.0
 11
4.106200
 21
2.248034
 31
0.0
  0
LINE
  5
146
100
AcDbEntity
  8
0
 62
7
100
AcDbLine
 10
4.106200
 20
2.248034
 30
0.0
 11
3.976468
 21
2.072128
 31
0.0
  0
LINE
  5
147
100
AcDbEntity
  8
0
 62
7
100
AcDbLine
 10
3.976468
 20
2.072128
 30
0.0
 11
3.807950
 21
1.933028
 31
0.0
  0
LINE
  5
148
100
AcDbEntity
  8
0
 62
7
100
AcDbLine
 10
3.807950
 20
1.933028
 30
0.0
 11
3.797327
 21
1.923821
 31
0.0
  0
LINE
  5
149
100
AcDbEntity
  8
0
 62
7
100
AcDbLine
 10
3.797327
 20
1.923821
 30
0.0
 11
3.786052
 21
1.914830
 31
0.0
  0
LINE
  5
14a
100
AcDbEntity
  8
0
 62
7
100
AcDbLine
 10
3.786052
 20
1.914830
 30
0.0
 11
3.774918
 21
1.906676
 31
0.0
  0
LINE
  5
14b
100
AcDbEntity
  8
0
 62
7
100
AcDbLine
 10
3.774918
 20
1.906676
 30
0.0
 11
3.764722
 21
1.899979
 31
0.0
  0
LINE
  5
14c
100
AcDbEntity
  8
0
 62
7
100
AcDbLine
 10
3.764722
 20
1.899979
 30
0.0
 11
3.747594
 21
1.889537
 31
0.0
  0
LINE
  5
14d
100
AcDbEntity
  8
0
 62
7
100
AcDbLine
 10
3.747594
 20
1.889537
 30
0.0
 11
3.730466
 21
1.879095
 31
0.0
  0
LINE
  5
14e
100
AcDbEntity
  8
0
 62
7
100
AcDbLine
 10
3.730466
 20
1.879095
 30
0.0
 11
3.713337
 21
1.868653
 31
0.0
  0
LINE
  5
14f
100
AcDbEntity
  8
0
 62
7
100
AcDbLine
 10
3.713337
 20
1.868653
 30
0.0
 11
3.696209
 21
1.858210
 31
0.0
  0
LINE
  5
150
100
AcDbEntity
  8
0
 62
7
100
AcDbLine
 10
3.696209
 20
1.858210
 30
0.0
 11
3.685626
 21
1.848527
 31
0.0
  0
LINE
  5
151
100
AcDbEntity
  8
0
 62
7
100
AcDbLine
 10
3.685626
 20
1.848527
 30
0.0
 11
3.678963
 21
1.835734
 31
0.0
  0
LINE
  5
152
100
AcDbEntity
  8
0
 62
7
100
AcDbLine
 10
3.678963
 20
1.835734
 30
0.0
 11
3.676790
 21
1.821485
 31
0.0
  0
LINE
  5
153
100
AcDbEntity
  8
0
 62
7
100
AcDbLine
 10
3.676790
 20
1.821485
 30
0.0
 11
3.679651
 21
1.807430
 31
0.0
  0
LINE
  5
154
100
AcDbEntity
  8
0
 62
7
100
AcDbLine
 10
3.679651
 20
1.807430
 30
0.0
 11
4.244063
 21
0.449115
 31
0.0
  0
LINE
  5
155
100
AcDbEntity
  8
0
 62
7
100
AcDbLine
 10
4.244063
 20
0.449115
 30
0.0
 11
4.289054
 21
0.432616
 31
0.0
  0
LINE
  5
156
100
AcDbEntity
  8
0
 62
7
100
AcDbLine
 10
4.289054
 20
0.432616
 30
0.0
 11
4.562809
 21
0.578177
 31
0.0
  0
LINE
  5
157
100
AcDbEntity
  8
0
 62
7
100
AcDbLine
 10
4.562809
 20
0.578177
 30
0.0
 11
4.622321
 21
0.576117
 31
0.0
  0
LINE
  5
158
100
AcDbEntity
  8
0
 62
7
100
AcDbLine
 10
4.622321
 20
0.576117
 30
0.0
 11
5.243102
 21
0.151809
 31
0.0
  0
LINE
  5
159
100
AcDbEntity
  8
0
 62
7
100
AcDbLine
 10
5.243102
 20
0.151809
 30
0.0
 11
5.297138
 21
0.156788
 31
0.0
  0
LINE
  5
15a
100
AcDbEntity
  8
0
 62
7
100
AcDbLine
 10
5.297138
 20
0.156788
 30
0.0
 11
5.866786
 21
0.724001
 31
0.0
  0
LINE
  5
15b
100
AcDbEntity
  8
0
 62
7
100
AcDbLine
 10
5.866786
 20
0.724001
 30
0.0
 11
5.871787
 21
0.777911
 31
0.0
  0
LINE
  5
15c
100
AcDbEntity
  8
0
 62
7
100
AcDbLine
 10
5.871787
 20
0.777911
 30
0.0
 11
5.438112
 21
1.407236
 31
0.0
  0
LINE
  5
15d
100
AcDbEntity
  8
0
 62
7
100
AcDbLine
 10
5.438112
 20
1.407236
 30
0.0
 11
5.433636
 21
1.467784
 31
0.0
  0
LINE
  5
15e
100
AcDbEntity
  8
0
 62
7
100
AcDbLine
 10
5.433636
 20
1.467784
 30
0.0
 11
5.671969
 21
2.060695
 31
0.0
  0
LINE
  5
15f
100
AcDbEntity
  8
0
 62
7
100
AcDbLine
 10
5.671969
 20
2.060695
 30
0.0
 11
5.717246
 21
2.100665
 31
0.0
  0
LINE
  5
160
100
AcDbEntity
  8
0
 62
7
100
AcDbLine
 10
5.717246
 20
2.100665
 30
0.0
 11
6.480665
 21
2.242148
 31
0.0
  0
LINE
  5
161
100
AcDbEntity
  8
0
 62
7
100
AcDbLine
 10
6.480665
 20
2.242148
 30
0.0
 11
6.515372
 21
2.283778
 31
0.0
  0
LINE
  5
162
100
AcDbEntity
  8
0
 62
7
100
AcDbLine
 10
6.515372
 20
2.283778
 30
0.0
 11
6.515467
 21
3.085974
 31
0.0
  0
LINE
  5
163
100
AcDbEntity
  8
0
 62
7
100
AcDbLine
 10
6.515467
 20
3.085974
 30
0.0
 11
6.480852
 21
3.127647
 31
0.0
  0
LINE
  5
164
100
AcDbEntity
  8
0
 62
7
100
AcDbLine
 10
6.480852
 20
3.127647
 30
0.0
 11
5.698195
 21
3.272588
 31
0.0
  0
ENDSEC
  0
SECTION
  2
OBJECTS
  0
DICTIONARY
  5
C
330
0
100
AcDbDictionary
  3
ACAD_GROUP
350
D
  3
ACAD_MLINESTYLE
350
17
  0
DICTIONARY
  5
D
330
C
100
AcDbDictionary
  0
DICTIONARY
  5
1A
330
C
100
AcDbDictionary
  0
DICTIONARY
  5
17
330
C
100
AcDbDictionary
  3
STANDARD
350
18
  0
DICTIONARY
  5
19
330
C
100
AcDbDictionary
  0
ENDSEC
  0
EOF
